# xmcd
# Track frame offsets:
# 182
# 16257
# 28690
# 43170
# 58427
# 73272
# 89995
# 102447
# 124337
# 139710
# 155640
# 173657
# 184492
#
# Disc length: 2698 seconds
# Revision: 0
# Processed by: cddbd v1.4PL0 Copyright (c) Steve Scherf et al.
# Submitted via: VisiTrax 2.9.5.180 - For more info visit www.synapsa.com
#
DISCID=ca0a880d
DTITLE=Jill Jones and Hays county Gals and Pals - Take Me Back
DYEAR=1994
DGENRE=Cowboy
TTITLE0=Take Me Back To My Boots And Saddle
TTITLE1=Pinto Pal
TTITLE2=Cowboy Love Call
TTITLE3=Roll Along Prairie Moon
TTITLE4=Froggie Went A Courtin'
TTITLE5=Wagon Wheels
TTITLE6=Partners
TTITLE7=Midnight On The Water - I Ride An Old Paint
TTITLE8=Round Up Time
TTITLE9=Ridin' Ropin'
TTITLE10=Ridin' Down The Canyon
TTITLE11=Blazin' The Trail
TTITLE12=Red River Valley - So Long To The Red River Valley
EXTD=
EXTT0=
EXTT1=
EXTT2=
EXTT3=
EXTT4=
EXTT5=
EXTT6=
EXTT7=
EXTT8=
EXTT9=
EXTT10=
EXTT11=
EXTT12=
PLAYORDER=
